<svg width="140" height="170" viewBox="0 0 140 170" fill="none" xmlns="http://www.w3.org/2000/svg">
<path d="M39.4883 91.5072C39.7481 88.5228 41.63 84.8897 41.7101 82.1019C41.8617 76.8509 43.5358 72.2712 44.6312 67.1451C45.8882 61.2647 46.4064 55.4472 50.3134 49.8353C51.1069 48.6955 53.5744 47.4858 53.75 46.1798C53.6517 43.7526 51.6251 41.3332 50.871 38.942C49.5424 35.9484 49.8851 33.3439 49.8823 30.2962C49.8752 25.135 56.2133 13.2843 68.36 14.2387C83.7255 15.4462 85.3672 30.995 84.1356 37.9523C89.9063 38.8619 91.746 40.0454 92.107 43.521C92.7024 49.2479 92.2446 55.0237 92.1842 60.7599C92.1294 66.0675 92.2123 71.399 91.7277 76.6978C91.628 77.7553 90.0636 79.0081 89.7139 79.9041C89.1029 81.4728 88.1353 84.3167 87.9682 85.8882C87.6817 88.5734 88.8768 91.517 87.8081 94.3005C86.9163 96.6276 85.9627 97.2203 82.7129 98.4492C82.609 102.797 83.5331 107.109 83.8715 111.441C84.019 113.322 84.7591 116.322 83.4994 117.997C84.0359 119.113 84.0443 123.637 84.2044 125.04C87.082 125.609 90.3149 126.176 93.0675 126.856C96.7232 127.759 100.085 128.878 103.852 129.68C113.538 127.954 115.876 132.885 120.125 136.313C121.174 137.16 126.635 140.15 128.067 140.995C138.07 146.892 136.812 154.76 125.718 159.885C107.04 168.56 81.0333 170.677 57.4464 169.828C37.5699 169.111 -9.08566 161.573 1.55829 145.31C3.59045 142.205 9.59426 139.208 14.0392 137.102C15.7118 133.759 20.0935 130.999 25.6592 129.59C26.9414 129.693 28.1632 129.861 29.4258 130.02C32.6966 128.998 36.5545 127.746 39.9897 126.965C42.9066 126.301 46.6269 125.933 49.4778 125.1C50.6547 124.756 50.8274 124.168 51.187 123.471C51.1336 122.397 50.6982 119.394 51.0016 118.549C49.6168 116.843 49.5438 114.074 49.3949 112.174C44.8924 112.53 37.8901 113.942 33.5674 112.818C32.8455 112.631 32.5913 112.403 32.3385 111.976C31.1841 110.028 30.8077 93.4944 32.0661 92.4032C33.1699 91.4454 37.6247 91.5634 39.4883 91.5072Z" fill="white"/>
<path d="M39.4887 91.5072C39.7485 88.5229 41.6304 84.8897 41.7104 82.102C41.8621 76.8509 43.5361 72.2712 44.6316 67.1451C45.8885 61.2647 46.4067 55.4472 50.3138 49.8353C51.1073 48.6955 53.5748 47.4858 53.7503 46.1798C53.652 43.7526 51.6255 41.3332 50.8713 38.942C49.5427 35.9484 49.8854 33.3439 49.8826 30.2962C49.8756 25.135 56.2136 13.2843 68.3603 14.2387C83.7258 15.4462 85.3676 30.995 84.1359 37.9523C89.9066 38.8619 91.7464 40.0454 92.1073 43.521C92.7028 49.2479 92.2449 55.0238 92.1845 60.7599C92.1297 66.0675 92.2126 71.399 91.7281 76.6978C91.6284 77.7553 90.0639 79.0081 89.7142 79.9041C89.1033 81.4728 88.1356 84.3167 87.9685 85.8882C87.682 88.5734 88.8772 91.517 87.8084 94.3006C86.9166 96.6276 85.963 97.2203 82.7133 98.4492C82.6093 102.797 83.5334 107.109 83.8719 111.441C84.0193 113.322 84.7595 116.322 83.4997 117.997C82.8411 119.024 83.5039 120.122 82.6796 120.606L82.6318 120.615C78.9326 121.387 77.9383 121.483 74.0312 121.615L74.1942 123.56C73.7672 124.561 74.5551 124.98 74.1141 126.022L73.7574 126.144C71.3208 126.023 64.428 125.718 62.3776 126.158C61.5125 127.638 61.8537 128.884 61.7329 130.351C61.4605 133.642 61.5054 132.679 65.8857 134.327C64.1317 134.082 62.4688 133.843 60.7344 133.556C56.6111 134.403 51.0286 135.622 46.6904 135.333C44.449 135.184 41.2259 136.308 39.5504 136.219C41.0166 135.438 42.3986 135.18 44.2271 134.802L45.0332 134.614L44.7748 134.285L45.1624 133.951C49.1341 134.516 55.4174 133.312 59.1488 132.386C60.4578 132.062 60.5013 131.92 60.8664 131.281C60.3033 130.843 60.3847 130.842 60.3215 130.285C60.8117 129.731 60.601 121.557 60.6277 120.393C57.1405 120.804 55.7488 120.824 52.3684 120.456C52.4653 121.866 52.5117 122.877 52.374 124.277C52.2603 124.008 52.1479 123.737 52.0398 123.466L51.1873 123.471C51.1339 122.397 50.6986 119.394 51.0019 118.549C49.6172 116.843 49.5442 114.074 49.3953 112.174C44.8928 112.53 37.8905 113.942 33.5677 112.818C32.8458 112.631 32.5917 112.403 32.3389 111.976C31.1844 110.028 30.8081 93.4944 32.0664 92.4032C33.1703 91.4454 37.625 91.5634 39.4887 91.5072Z" fill="#99A0AE"/>
<path d="M51.0021 118.549L51.3728 118.715C51.422 119.581 51.3911 120.3 51.7562 121.144L52.0287 121.137L52.3685 120.456C52.4654 121.866 52.5118 122.877 52.3742 124.277C52.2604 124.008 52.148 123.737 52.0399 123.466L51.1874 123.471C51.1341 122.397 50.6987 119.394 51.0021 118.549Z" fill="#99A0AE"/>
<path d="M53.0816 81.4039C60.7721 83.4206 67.9626 83.7998 75.927 82.0808C76.8988 81.8659 77.8566 81.6328 78.8004 81.3828C78.8467 81.8926 79.2021 84.9556 79.0813 85.2772C78.2316 87.4428 76.382 89.1182 76.5871 91.4243C76.7149 92.8722 78.3187 92.8399 78.49 93.9311C78.8509 96.2315 77.778 96.6571 81.3311 98.2033L81.3494 100.575C75.8933 99.6456 73.8653 99.1934 69.1423 101.308C68.9387 100.421 68.6382 99.4041 68.6494 98.5221L68.4317 97.8662C67.7211 95.7428 67.8011 93.5112 66.7296 91.3063C64.4615 90.7937 60.7763 89.4398 59.664 89.3682L59.3902 89.6C59.9702 91.0858 62.1288 91.6672 64.2129 92.4045C63.8843 93.8117 63.5528 95.1656 63.3674 96.584C63.1301 96.8256 63.0121 96.9393 62.7565 97.1626C62.8689 97.7146 63.0571 98.1008 62.706 98.6106C61.2524 98.6597 59.9899 97.4702 58.6725 97.6865C58.9338 98.369 61.3886 99.0052 62.6077 99.5473C62.3577 100.61 62.0487 101.766 61.8858 102.827C57.6642 101.471 55.3245 100.825 50.7068 99.883C51.1 95.5335 51.4202 91.0366 52.6125 86.7336C53.1434 84.8124 52.819 83.3153 53.0816 81.4039Z" fill="white"/>
<path d="M57.8359 95.0264C60.4537 95.3943 61.3357 96.2215 63.3679 96.5838C63.1305 96.8254 63.0126 96.9392 62.757 97.1625C61.4986 96.9967 58.8415 95.5558 57.8359 95.0264Z" fill="#99A0AE"/>
<path d="M68.4319 97.8661C69.4093 97.6344 70.082 97.3914 71.096 97.4926L71.1073 97.7383C70.2773 98.206 69.7619 98.265 68.6496 98.522L68.4319 97.8661Z" fill="#99A0AE"/>
<path d="M77.7204 48.0688C77.7204 48.3947 75.1475 51.382 74.6799 52.3608C71.7475 58.512 75.3231 62.088 77.5167 68.0032C76.5814 67.5411 76.1362 67.3291 75.111 66.9442L74.7992 66.985C75.5885 67.7349 76.58 68.1408 77.7415 68.7152L78.5588 70.9018C77.1361 70.4988 74.7431 69.5733 73.3597 69.4764C74.6588 70.3555 76.9465 71.1294 78.6655 71.7066C78.6431 73.2317 78.5967 74.7555 78.5279 76.2807C76.0421 77.261 74.979 77.3986 72.1449 77.8298C69.3319 78.1261 67.1916 78.1822 64.3519 78.2047C63.609 74.1839 63.4222 71.3513 63.7199 67.3375C68.7041 67.5271 71.6323 68.0004 71.8275 64.146C71.9483 61.7655 73.0746 57.166 71.0692 55.1539C69.3263 54.3577 66.8475 54.3394 64.5583 54.1646C64.8266 53.2205 64.9811 51.8166 65.1384 50.8307C69.9962 50.7087 74.1209 50.0655 77.7204 48.0688Z" fill="white"/>
<path d="M83.0099 49.9009C83.7346 51.091 84.3427 52.4824 84.896 53.7054C83.9677 54.0131 81.4356 54.8769 81.0957 55.3345C80.0916 56.6867 81.3668 61.8891 83.3118 62.6323C84.7429 62.6084 86.1375 62.2144 87.504 61.9074C87.8242 63.5269 88.0812 64.9739 88.2624 66.6058C86.886 66.8486 85.5168 67.1042 84.1545 67.3696C85.5589 67.3977 87.1866 67.2685 88.1992 67.6674C88.7736 68.2432 88.6752 69.1532 88.7146 69.8512C87.6528 69.8793 86.858 69.899 85.8089 69.9818L85.5322 70.2613C86.351 70.5913 87.4871 70.6208 88.5587 70.7318C88.8958 71.2093 88.8508 72.0196 88.6233 72.5055C87.7722 72.733 85.7021 72.3145 84.6797 72.1586C86.2147 72.9086 86.8762 73.1445 88.6092 73.7442C88.6092 74.7596 88.723 76.6204 88.077 77.5094L87.5433 77.8071C88.7834 78.7593 87.4942 82.0751 87.1824 83.3671C84.6713 82.1046 83.4902 81.9066 80.371 82.5259C79.9778 79.7775 79.777 75.8522 80.1421 73.0378C80.2095 72.528 81.8696 71.8609 82.6293 71.5856L82.9214 71.4803L82.6728 71.271C81.972 71.2444 81.2741 71.2079 80.5761 71.1643C80.0565 70.7823 80.1267 70.7851 80.0593 70.2936C80.3598 69.7641 80.93 69.6012 81.7094 69.2571L82.0521 69.1097L82.1041 68.8176L81.6659 68.7277L79.8753 69.215L79.5143 69.1013C76.391 62.8173 73.9305 54.9724 83.0099 49.9009Z" fill="white"/>
<path d="M84.2373 76.251C85.9352 76.7144 86.5208 76.9054 88.0769 77.5093L87.5433 77.807C86.0925 77.5065 85.2134 76.9054 84.2373 76.251Z" fill="#99A0AE"/>
<path d="M65.397 93.4087C66.5528 93.9016 67.0261 98.5502 67.269 99.6063C68.8307 106.394 69.5076 113.309 72.065 120.002C72.551 121.276 72.7476 123.129 73.0285 124.468L69.3784 124.357L61.8509 124.2C61.7525 121.035 62.2118 118.545 62.6205 115.442C62.9379 113.132 61.9857 110.062 62.4323 107.825C63.3199 103.377 63.8465 97.7567 65.397 93.4087Z" fill="white"/>
<path d="M47.4283 92.7766C48.3285 92.7345 48.8959 92.6488 49.6908 92.8791C50.0461 93.8046 48.3636 101.946 48.2429 103.583C48.0392 106.357 48.3749 107.865 48.9423 110.645C46.3399 110.952 43.4061 111.187 40.7616 111.43L38.5005 111.608C38.5511 105.43 38.457 99.2537 38.2183 93.0771C41.0228 92.8482 44.5465 92.8342 47.4283 92.7766Z" fill="white"/>
<path d="M56.4034 55.1162C59.8302 55.1314 65.4702 55.6926 68.9447 55.9874C68.9433 57.3735 69.1273 65.3206 68.4054 65.9978C64.6374 65.9898 59.4313 65.6901 55.7181 65.1974C54.8993 62.8554 55.2785 57.4429 56.4034 55.1162Z" fill="white"/>
<path d="M57.0949 56.5453C58.6285 56.5423 60.6368 56.4572 62.044 56.7582C64.8472 57.3579 63.9456 59.5997 62.9232 60.789C62.0019 60.8739 57.9516 60.7512 56.7789 60.7267C56.6188 59.3653 56.8281 57.8967 57.0949 56.5453Z" fill="#99A0AE"/>
<path d="M57.8708 57.5871C59.4494 57.5703 61.3383 57.3899 62.4281 57.9787C62.8761 58.5401 62.5967 59.132 62.4506 59.7611C60.9746 59.6906 59.2261 59.6746 57.7234 59.6416L57.8708 57.5871Z" fill="white"/>
<path d="M65.7852 57.2744C69.0715 57.6424 68.2977 59.845 66.7149 60.9919C66.3147 60.933 65.9594 60.8407 65.5703 60.7535C63.8457 59.6747 64.4159 58.3669 65.7852 57.2744Z" fill="#99A0AE"/>
<path d="M65.4223 61.7705C68.7858 61.8854 67.6033 63.653 66.6469 64.7464L65.8281 64.7734C63.7314 64.1397 64.3732 62.7224 65.4223 61.7705Z" fill="#99A0AE"/>
<path d="M61.0761 61.7993C61.8485 61.8808 61.8218 61.8878 62.5184 62.1046C63.8287 63.0633 63.3189 63.902 62.3162 64.8796C59.4428 64.6723 59.9582 62.8355 61.0761 61.7993Z" fill="#99A0AE"/>
<path d="M56.9147 61.8035C58.3514 61.8846 57.9975 61.7418 58.864 62.211C59.4314 63.0674 59.0592 63.682 58.5256 64.5422C55.8474 64.1658 56.4639 62.9646 56.9147 61.8035Z" fill="#99A0AE"/>
<path d="M55.2195 48.4758C57.4061 49.4144 58.7052 49.785 61.2107 50.3414C60.9649 51.4614 60.9242 52.8102 60.8399 53.9551C59.2937 53.8732 57.798 53.7573 56.3557 54.057C53.5342 55.4409 53.5679 64.0867 55.1774 66.035C55.5523 66.4895 58.6603 66.867 59.524 66.9892C59.3358 69.8963 59.3414 72.8062 59.5422 75.7133L59.8667 78.032C57.1688 77.5868 55.0875 77.1641 52.5876 76.4422C51.4641 66.1099 53.5468 58.5291 55.2195 48.4758Z" fill="white"/>
<path d="M51.085 51.3901C51.8827 52.6181 51.3842 65.2582 50.9685 67.0775C50.8463 67.6126 50.6356 67.5902 49.9854 67.871C50.6749 70.0886 50.9783 69.3134 50.7283 71.9452L47.199 70.5029C48.1976 71.3834 49.4264 72.0688 50.6862 72.8314L50.8336 75.1542C49.6567 74.4731 49.2733 74.1908 47.7116 73.7765L47.7524 73.9212L47.6147 73.8046C48.3071 74.6122 49.8225 75.5405 50.8772 76.4C50.9109 77.3254 51.1159 79.1315 50.4039 79.9138C50.1904 80.2283 50.0893 80.3435 49.8028 80.6412C47.9069 80.4558 47.9378 79.4096 43.417 79.0557C43.7583 75.973 44.5897 72.7626 45.5222 69.7178C45.7118 69.0971 46.1935 68.9103 47.1148 68.6477C47.2131 68.0592 46.2511 68.3513 46.303 67.4216L46.9083 67.2756C46.8114 66.7993 46.2693 61.9252 46.9926 61.7649C48.8338 61.3563 49.6806 61.505 50.1005 59.8214C50.5443 58.0431 51.7999 56.2001 49.3155 54.7973C49.9053 53.4081 50.1778 52.7232 51.085 51.3901Z" fill="white"/>
<path d="M65.4702 15.8395C65.7974 15.8187 66.1261 15.8006 66.4547 15.7849C76.829 15.2723 81.7739 23.5825 82.5435 28.2009C82.5983 28.5348 82.5575 28.8826 82.1657 29.1312C79.6827 28.3798 80.5675 29.0851 78.5143 29.1932C76.4119 22.9191 71.328 18.4536 59.5422 17.8035C61.8483 16.6913 62.6305 16.3993 65.4702 15.8395Z" fill="white"/>
<path d="M57.2559 102.574C58.6926 103.01 60.0942 103.491 61.4986 103.961C61.2852 104.786 61.354 106.778 60.604 107.448C60.4496 107.586 59.5507 107.45 58.9131 107.951C59.6785 108.495 59.7993 107.861 61.0282 108.299C61.3343 109.437 61.2149 111.423 61.2079 112.638C59.8625 112.744 60.0872 112.617 59.1294 113.027C58.8443 113.013 58.9904 113.007 58.6926 113.049C59.5269 113.191 60.2909 113.294 61.0633 113.524C61.3119 113.92 61.1321 114.108 60.9579 114.529L61.156 115.121C61.2304 115.732 61.3596 116.031 60.9607 116.601C58.9117 117.959 52.0737 118.198 51.3968 116.224C50.9586 114.949 50.9263 113.006 50.8083 111.656C52.7324 111.685 54.0371 111.834 55.5552 111.059C58.0649 109.775 57.2868 104.734 57.2559 102.574Z" fill="white"/>
<path d="M55.4175 115.192C57.4581 114.624 58.7487 114.605 60.9578 114.53L61.1559 115.121C59.1181 115.414 57.4665 115.298 55.4175 115.192Z" fill="#99A0AE"/>
<path d="M89.8468 65.894C89.4733 63.6783 88.9859 61.4693 88.3849 59.2701C88.0661 58.0945 87.222 55.5335 87.1434 54.463C86.8835 50.9546 87.4453 47.5494 86.8161 44.0196C86.4032 41.7063 82.0482 40.5963 82.8389 39.5156C84.1085 39.3001 86.378 39.6227 87.5043 39.972C90.0154 40.7506 90.8271 43.0766 90.9058 44.6106C91.2737 51.6735 90.6824 58.8339 90.7133 65.8959L89.8468 65.894Z" fill="white"/>
<path d="M69.4482 102.711C71.2824 101.516 72.8006 101.072 75.6051 100.97C77.8044 100.89 80.939 100.94 81.5219 102.432C81.2747 102.922 81.1511 102.947 80.5781 103.329L80.5894 103.637L81.5359 103.987C81.8674 104.985 81.8182 106.037 81.8505 107.059C79.5782 108.378 77.3059 108.975 74.2387 109.437C69.2952 108.837 70.076 107.814 69.7909 105.163L69.7488 105L69.4482 102.711Z" fill="white"/>
<path d="M69.7495 105.001C71.8982 104.918 75.2506 104.563 76.9681 104.596L77.2265 104.725C74.9837 105.789 72.3729 105.728 69.7917 105.164L69.7495 105.001Z" fill="#99A0AE"/>
<path d="M71.9848 115.709C71.7924 114.777 71.6562 114.083 71.6057 113.142C72.3051 112.607 72.6449 113.253 73.8372 112.774C73.6196 112.419 72.364 112.187 71.5916 111.972C70.9414 111.451 70.4737 111.214 71.0987 110.624C72.7797 110.18 75.4102 110.544 76.7766 110.263C78.2836 109.953 79.8832 108.863 81.7707 108.603L82.1387 108.774C82.2594 109.388 82.1541 109.498 81.876 110.078L82.2931 110.475C82.6751 112.149 82.7411 115.184 82.7833 116.913C80.4997 117.792 72.305 119.948 72.2559 116.944C72.8977 116.546 72.9384 116.66 74.1041 116.527L74.3063 116.313C73.6097 115.931 72.9792 115.899 71.9848 115.709Z" fill="white"/>
<path d="M81.8768 110.077L82.2939 110.475C81.6226 110.809 80.7323 111.357 79.832 111.219C80.1017 110.652 81.0103 110.344 81.8768 110.077Z" fill="#99A0AE"/>
<path d="M80.8344 85.6031C87.0096 85.4023 86.9632 86.9682 86.9478 89.9076C86.9379 91.9833 86.7385 97.8354 80.6462 96.417C78.5874 94.3652 82.0689 90.7657 79.9201 89.8613C79.3303 90.1562 79.0831 91.2011 78.8795 91.7235L78.5466 91.7544C77.1563 90.5354 79.9356 86.8474 80.8344 85.6031Z" fill="white"/>
<path d="M52.6326 77.6443C60.3455 80.1708 70.8448 80.1216 78.569 77.6443L78.6111 80.0374C71.5231 82.5162 59.9677 82.1327 52.7913 79.9475L52.6326 77.6443Z" fill="white"/>
<path d="M50.4795 101.164C52.551 101.433 54.263 101.535 55.7839 102.383C56.6912 103.933 56.1603 108.318 55.3149 109.976C54.9272 110.733 51.669 110.381 50.6256 110.284C50.4149 109.489 50.047 108.746 50.5104 108.022C51.4275 107.564 51.8221 107.765 52.9569 107.971L53.3571 107.864L53.4554 107.498C51.8614 107.01 50.3433 107.215 49.9866 106.453C49.6256 105.678 49.8377 104.525 49.9599 103.717L50.2829 103.21C50.0048 102.539 50.3011 101.863 50.4795 101.164Z" fill="white"/>
<path d="M50.2827 103.21C51.3445 103.357 52.4413 103.426 53.1772 103.857L53.0747 104.088C51.7714 104.255 51.1647 104.043 49.9597 103.717L50.2827 103.21Z" fill="#99A0AE"/>
<path d="M77.1646 39.481C78.503 40.2374 78.958 40.3246 80.8146 40.5461C79.01 43.0775 77.3036 45.1049 72.4823 46.2339C67.3745 47.4297 63.0925 46.9757 58.208 45.8982C56.3767 45.3134 55.8149 45.0278 54.3052 44.2458L55.1197 44.4698C65.3451 47.2497 72.7253 45.0865 77.1646 39.481Z" fill="white"/>
<path d="M35.4651 92.9285C36.3049 92.9495 36.3863 92.906 37.0998 93.1335C37.3638 93.941 37.3174 97.8368 37.3385 98.8789L37.5239 111.912C36.3976 111.794 36.3119 111.899 35.6645 111.524C35.3386 109.867 35.4482 106.463 35.4328 104.666C35.3667 100.754 35.3766 96.8411 35.4651 92.9285Z" fill="white"/>
<path d="M81.7392 41.604C86.1391 42.4858 85.9748 45.0376 85.9762 47.3581C85.9776 48.5356 86.1827 50.6492 85.7768 51.7379L85.4468 51.409C84.3429 49.1095 83.6197 47.3135 80.0862 45.9033C80.2252 43.8105 80.1929 43.5004 81.7392 41.604Z" fill="white"/>
<path d="M33.25 93.2642C33.6882 93.2852 33.9143 93.3232 34.3427 93.3779C34.7682 94.4186 34.7162 111.021 34.1489 111.694C32.1953 110.547 33.3343 98.3804 32.8596 95.9704C32.7487 95.4045 32.8119 93.8343 33.25 93.2642Z" fill="white"/>
<path d="M78.6142 45.0071C79.3417 47.2391 71.4574 49.0843 68.2132 49.2552C63.3189 49.5131 59.6815 48.9765 55.8222 47.2439C55.3742 46.6589 55.3616 46.9272 55.5062 46.3924C57.5749 46.5049 60.6983 48.2258 65.5393 48.1409C70.949 48.0459 74.7268 47.146 78.6142 45.0071Z" fill="white"/>
<path d="M85.0545 54.9609C86.0924 55.4581 86.9462 59.5803 87.2145 60.576L83.5434 61.5102L83.3327 61.4882C82.8187 60.9708 81.8047 57.0552 81.5562 56.1974C83.0041 55.5359 83.4549 55.412 85.0545 54.9609Z" fill="white"/>
<path d="M60.6596 67.0986C61.5219 67.1394 61.5711 67.1309 62.38 67.2896C62.5176 67.4568 63.0007 76.9027 63.2325 78.1878C62.3379 78.133 62.1412 78.1498 61.3028 77.949C59.9757 76.7047 60.5121 68.8443 60.6596 67.0986Z" fill="white"/>
<path d="M43.0901 82.1733C46.1307 82.5357 46.3301 82.8095 48.4549 84.11C48.4114 84.8838 48.5757 86.1984 47.8117 86.7292L47.3244 86.7166C46.375 85.8262 47.7022 85.242 46.4944 84.4836C45.4411 85.1184 45.4945 87.3205 45.92 88.1463C46.1896 88.6195 45.8765 89.2515 45.6391 89.7065L45.2628 89.7796C44.142 88.8597 44.2502 86.4666 43.5452 85.1661C43.0424 85.3234 42.6379 86.2264 42.3823 86.6323L42.2138 86.593C42.0031 85.5776 42.798 83.3067 43.0901 82.1733Z" fill="white"/>
<path d="M57.6307 22.7842C60.8636 24.2047 57.4383 25.7723 56.2909 27.152C54.6267 29.1505 54.1899 31.5657 53.784 33.7414L53.6267 33.8405L53.2574 33.8093C51.7519 31.0883 54.0059 24.9954 57.6307 22.7842Z" fill="white"/>
<path d="M81.8691 31.4358L82.5418 31.5449C84.501 32.6454 83.2511 37.5428 81.4843 38.7517L80.6052 38.6043C78.4986 36.9544 79.7176 32.9944 81.8691 31.4358Z" fill="white"/>
<path d="M59.4673 19.2115C64.5288 18.865 69.4372 20.4356 72.4103 22.6813C74.5885 24.3274 77.6417 27.7379 77.1853 29.8008C76.5856 29.474 76.6137 29.1524 76.351 28.6111C74.3315 24.2384 69.8711 20.409 61.0712 19.9446C59.7749 19.8761 58.0489 20.3349 56.4058 20.2832L56.4633 20.0537C57.5377 19.4875 58.0559 19.4609 59.4673 19.2115Z" fill="white"/>
<path d="M80.2583 47.9736C84.2075 48.5757 80.1193 49.937 78.8932 51.2657C76.6911 53.6553 75.9566 55.8932 75.3064 58.5413C75.239 59.0187 75.3808 58.9628 74.989 59.2987C73.5593 55.9736 76.3119 50.5889 80.2583 47.9736Z" fill="white"/>
<path d="M75.9809 38.2656L76.1986 38.4212C76.1298 39.4066 74.7773 40.551 73.6987 41.3002C68.2525 45.0826 60.3991 45.6889 53.8377 42.3788L53.5273 41.9154L53.745 41.7783C63.3652 45.4824 70.779 43.8335 75.9809 38.2656Z" fill="white"/>
<path d="M80.3709 29.8555C80.8849 29.9314 81.1728 30.0076 81.6671 30.1189L81.8343 30.4137C78.4342 32.8339 77.7868 35.8365 79.3218 38.779L79.1828 38.9133L78.7361 38.8088C76.0369 37.0602 77.4666 31.5879 80.3709 29.8555Z" fill="white"/>
<path d="M69.997 56.1929C71.9786 56.8865 70.6529 63.7966 70.4225 65.3314L70.1164 65.3496C69.7274 65.0892 70.2077 57.4432 69.997 56.1929Z" fill="white"/>
<path d="M82.1305 118.721L82.469 119.036L82.1516 119.382C79.8147 120.244 76.9427 120.443 74.2252 120.452C74.1535 120.387 74.0089 120.103 73.9597 120.016C74.7349 119.606 77.9735 119.581 79.2669 119.345C80.361 119.146 81.0716 118.995 82.1305 118.721Z" fill="white"/>
<path d="M62.2107 50.5347L63.4676 50.6771C64.4254 51.3223 63.7597 53.1051 63.6558 54.1643C62.9086 54.0913 62.7851 54.1311 62.2331 53.8578C61.6419 52.8304 62.0393 51.6444 62.2107 50.5347Z" fill="white"/>
<path d="M51.1927 81.5752C51.6828 82.651 51.1463 86.572 50.4175 87.6829C49.2209 85.9934 49.8641 83.1888 51.1927 81.5752Z" fill="white"/>
<path d="M59.3452 118.776C59.7876 118.693 59.8016 118.719 60.2805 118.708L60.4504 118.948C59.4688 119.831 56.0196 119.678 54.434 119.646C53.597 119.54 53.215 119.542 52.6111 119.196L52.8372 119.001C54.6559 118.844 57.1894 118.901 59.3452 118.776Z" fill="white"/>
<path d="M48.8656 55.7368L49.4471 56.0986C50.0032 57.0384 48.9359 59.6839 48.3882 60.6481L47.7716 60.4503C47.1537 59.8059 48.523 56.607 48.8656 55.7368Z" fill="white"/>
<path d="M76.7813 31.3416C76.8459 31.9175 75.7828 36.2682 75.9738 37.2323C75.8404 37.3341 75.7069 37.4359 75.5749 37.5378C74.4542 36.1214 75.3095 32.6309 76.7813 31.3416Z" fill="white"/>
<path d="M53.4864 48.5227C53.5032 48.5321 53.5229 48.5393 53.5341 48.5507C54.1998 49.2277 53.0159 53.7739 52.8432 54.832L52.7182 54.8273C51.7042 53.7493 52.5637 49.7697 53.4864 48.5227Z" fill="white"/>
<path d="M43.22 80.3041C45.6678 80.2535 49.0861 81.0203 49.0061 82.6396C47.693 82.2028 46.4361 81.4122 44.5261 81.1481C44.0949 81.0892 43.7593 80.9979 43.3773 80.8673L43.22 80.3041Z" fill="white"/>
<path d="M81.0463 83.4065C82.7695 83.3489 86.4012 83.7112 86.6667 84.8347L86.3142 84.9246C83.6697 84.1985 83.0812 84.5272 80.778 84.1072L80.6235 83.8109L81.0463 83.4065Z" fill="white"/>
<path d="M90.1241 69.0886L90.7069 69.8189C90.749 70.875 90.8656 74.4296 90.2561 75.2315C90.0356 73.365 90.1269 71 90.1241 69.0886Z" fill="#99A0AE"/>
<path d="M42.3945 88.3022C42.9801 88.468 42.7189 88.3598 43.0952 88.6913C42.3313 89.9665 41.3566 89.2966 41.5307 91.2108L41.1052 91.2262L40.8608 90.9594C40.8608 89.8373 41.1656 89.1814 42.3945 88.3022Z" fill="white"/>
<path d="M89.8462 65.894L90.7127 65.896L90.7071 69.8191L90.1243 69.0888C90.1102 67.9779 89.9894 67.0032 89.8462 65.894Z" fill="white"/>
<path d="M82.6315 120.615L82.6792 120.606C83.5036 120.122 82.8407 119.023 83.4994 117.997C84.0359 119.113 84.0443 123.637 84.2044 125.04C87.082 125.609 90.3149 126.176 93.0676 126.856C96.7232 127.759 100.085 128.878 103.852 129.68C113.538 127.954 115.876 132.885 120.125 136.313C121.174 137.16 126.636 140.15 128.067 140.995C138.07 146.892 136.812 154.76 125.718 159.884C107.04 168.559 81.0333 170.677 57.4464 169.828C37.5699 169.111 -9.08566 161.573 1.55829 145.31C3.59045 142.204 9.59426 139.207 14.0392 137.102C15.7118 133.758 20.0935 130.999 25.6592 129.59C26.9414 129.693 28.1632 129.861 29.4258 130.02C32.6966 128.997 36.5545 127.746 39.9897 126.965C42.9066 126.301 46.6269 125.933 49.4778 125.1C50.6547 124.756 50.8274 124.168 51.187 123.471L52.0394 123.466C52.1476 123.737 52.2599 124.008 52.3737 124.277C52.5113 122.877 52.465 121.866 52.3681 120.456C55.7485 120.824 57.1402 120.804 60.6273 120.393C60.6006 121.557 60.8113 129.731 60.3212 130.285C60.3844 130.841 60.3029 130.843 60.8661 131.281C60.5009 131.92 60.4574 132.062 59.1485 132.386C55.417 133.312 49.1337 134.515 45.1621 133.951L44.7745 134.285L45.0329 134.614L44.2268 134.802C43.3406 132.744 44.2408 128.233 44.0189 127.908C37.782 129.214 35.5995 129.903 29.7067 131.728L26.3094 131.103C23.4009 131.892 18.5585 134.011 16.994 135.661C16.1514 136.564 15.8031 137.765 14.542 138.518C10.5366 140.904 0.658065 145.599 2.08353 149.423C3.37698 152.898 13.0084 156.827 18.0403 158.51C41.0528 166.203 69.6562 167.152 95.1629 163.543C103.898 162.386 112.653 160.025 120.073 157.22C124.769 155.445 132.856 151.924 132.811 148.329C132.783 146.009 127.526 142.721 124.938 141.014C123.106 139.804 120.679 138.634 118.906 137.309C117.145 135.991 116.288 134.118 114.289 132.969C112.912 132.177 110.33 131.289 108.592 130.722C107.62 130.848 104.994 131.212 104.154 131.153C98.7624 130.766 89.7616 126.873 84.2212 127.149C85.1327 129.026 84.6468 134.552 84.1075 136.577C86.5876 137.313 88.7055 137.906 90.9947 138.839C88.6928 138.554 86.2071 137.83 84.0864 137.241C82.3281 138.686 79.7623 140.352 76.4493 140.165C67.8979 139.682 72.7571 131.194 73.4214 128.332C73.604 127.548 73.6335 126.868 73.7571 126.144L74.1138 126.022C74.5548 124.979 73.7669 124.561 74.1938 123.56L74.0309 121.615C77.938 121.483 78.9323 121.387 82.6315 120.615Z" fill="#99A0AE"/>
<path d="M82.632 120.615C82.6489 124.162 84.983 133.493 80.84 135.969C79.6828 136.661 78.0705 136.947 76.4203 136.938C75.3881 136.932 74.4064 136.754 73.7253 136.289C72.7226 135.605 72.6734 134.545 72.8433 133.702C73.4416 130.718 75.294 128.586 74.7196 125.459C74.6045 124.832 74.5623 124.154 74.1944 123.56L74.0315 121.615C77.9385 121.483 78.9328 121.387 82.632 120.615Z" fill="white"/>
<path d="M52.3691 120.456C55.7495 120.824 57.1413 120.804 60.6284 120.393C60.6017 121.557 60.8124 129.731 60.3222 130.285C56.1456 130.955 50.2162 132.836 45.7614 132.297C43.0636 131.971 46.121 128.346 47.0549 127.634C47.7753 127.395 48.4916 127.149 49.2008 126.899C51.386 126.12 51.8032 125.664 52.3747 124.277C52.5124 122.877 52.466 121.866 52.3691 120.456Z" fill="white"/>
<path d="M45.1622 133.951C45.0681 133.573 45.0835 133.654 45.1242 133.277C46.252 133.069 50.3964 133.049 52.1547 132.816C54.4298 132.513 58.9899 131.292 60.8662 131.281C60.501 131.92 60.4575 132.062 59.1486 132.386C55.4171 133.312 49.1338 134.515 45.1622 133.951Z" fill="white"/>
<path d="M1.54688 150.757C2.57068 151.224 4.45819 153.066 5.64912 153.784C9.441 156.066 14.5348 158.296 19.3111 159.833C41.9922 167.128 72.5238 167.937 97.3283 164.12C107.691 162.525 121.094 158.755 128.367 154.282C130.367 153.054 131.697 151.736 133.132 150.281L132.714 152.334C126.21 162.134 97.928 166.818 80.9797 167.843C57.633 169.256 30.2612 167.158 11.0462 158.885C6.73473 157.028 2.15217 153.907 1.54688 150.757Z" fill="white"/>
<path d="M82.7595 135.851C83.0474 138.154 77.1531 139.473 73.4525 138.175L73.1155 137.632L73.3542 137.473C77.75 137.945 79.7962 137.914 82.7595 135.851Z" fill="white"/>
<path d="M105.028 141.821C113.325 141.287 116.838 145.209 121.051 148.489C118.989 147.617 118.263 146.644 116.284 146.127C115.935 146.034 115.387 146.357 114.967 146.534C112.14 147.335 104.831 145.825 103.577 144.151C103.406 143.922 103.267 143.96 102.853 143.848C101.577 144.057 101.351 144.72 99.8837 145.161L99.4849 144.966C99.9806 144.388 103.917 142.22 105.028 141.821Z" fill="#99A0AE"/>
<path d="M104.606 142.814C107.837 142.609 115.556 143.355 114.7 145.909C111.635 145.953 106.66 145.456 104.627 143.958C104.085 143.56 104.394 143.232 104.606 142.814Z" fill="white"/>
<path d="M35.0537 146.058C35.7812 146.017 36.8682 145.968 37.5816 145.972C39.3849 145.984 43.7666 148.211 43.7076 149.19C41.7106 148.308 41.5814 147.965 39.8203 148.94C33.3362 151.885 26.4546 147.614 35.0537 146.058Z" fill="#99A0AE"/>
<path d="M37.3594 146.854C38.5321 146.883 39.671 146.867 40.0685 147.55C39.3466 148.603 36.5785 148.95 34.8764 149.128C33.6251 149.087 32.2052 149.037 31.8401 148.272C32.7066 147.213 35.5533 146.995 37.3594 146.854Z" fill="white"/>
<path d="M84.6193 151.179C86.827 151.177 90.1891 151.63 89.2777 153.29C88.4463 153.812 88.3465 153.805 87.1303 154.035C82.493 154.173 80.0901 152.238 84.6193 151.179Z" fill="#99A0AE"/>
<path d="M84.9364 151.992C86.2818 151.988 88.1272 151.971 88.5625 152.853C88.085 153.278 87.8687 153.261 87.0275 153.441C85.6554 153.405 83.796 153.389 83.1963 152.556C83.8676 152.087 83.7539 152.222 84.9364 151.992Z" fill="white"/>
<path d="M61.2651 156.327C63.2958 156.162 67.2001 156.145 67.0231 157.812C66.3869 158.409 66.3111 158.414 65.2114 158.767C63.1147 159.004 59.6486 158.973 59.7048 157.32C60.2918 156.698 60.2441 156.725 61.2651 156.327Z" fill="#99A0AE"/>
<path d="M61.0588 157.133C62.4969 157.042 65.0262 156.715 65.7228 157.55L65.3169 158.011C63.9322 158.132 62.4252 158.272 61.1711 157.876C60.7343 157.432 60.8018 157.67 61.0588 157.133Z" fill="white"/>
<path d="M62.1021 141.911C65.092 141.709 74.1658 141.665 76.8525 142.248C74.6462 142.533 66.5147 142.287 63.9095 142.351C62.7382 142.38 62.668 142.286 62.1021 141.911Z" fill="#99A0AE"/>
<path d="M52.7434 146.551C54.5551 146.318 60.6895 146.353 61.931 147.206C59.9634 147.199 54.0551 147.301 52.7434 146.551Z" fill="#99A0AE"/>
<path d="M12.6885 143.573L12.9989 143.636L12.8711 143.883C10.6198 144.645 8.58483 146.13 6.9473 147.307C6.70294 147.275 6.85743 147.307 6.55127 147.138C7.09899 145.921 10.9105 144.259 12.6885 143.573Z" fill="#99A0AE"/>
<path d="M73.1745 143.974C74.4132 143.897 77.5745 143.689 78.4312 144.142L78.0295 144.387C76.7473 144.433 73.8641 144.635 72.8894 144.308L73.1745 143.974Z" fill="#99A0AE"/>
<path d="M98.3623 135.082C99.8468 135.285 101.696 135.747 102.576 136.499C101.125 136.402 99.108 135.836 98.3623 135.082Z" fill="#99A0AE"/>
<path d="M124.449 144.025C126.025 144.35 126.556 144.888 127.284 145.718C125.969 145.391 125.143 144.714 124.449 144.025Z" fill="#99A0AE"/>
<path d="M134.954 73.7237L136.484 75.8839L139.12 76.1287L136.96 77.6586L136.715 80.2943L135.185 78.1341L132.549 77.8893L134.709 76.3594L134.954 73.7237Z" fill="#99A0AE"/>
<path d="M4.79554 69.2581L6.3254 71.4183L8.96112 71.6631L6.80092 73.193L6.55613 75.8287L5.02627 73.6685L2.39054 73.4237L4.55075 71.8939L4.79554 69.2581Z" fill="#99A0AE"/>
<path d="M11.9453 9.57375L13.5449 9.37528L14.4355 8.03176L14.634 9.63139L15.9775 10.522L14.3779 10.7204L13.4873 12.064L13.2888 10.4643L11.9453 9.57375Z" fill="#99A0AE"/>
<path d="M112.658 18.7433L114.282 18.5418L115.186 17.1777L115.388 18.8018L116.752 19.7061L115.127 19.9076L114.223 21.2717L114.022 19.6475L112.658 18.7433Z" fill="#99A0AE"/>
<path d="M103.005 55.2912L104.042 55.1626L104.619 54.2917L104.748 55.3286L105.619 55.9059L104.582 56.0346L104.005 56.9055L103.876 55.8686L103.005 55.2912Z" fill="#99A0AE"/>
<path d="M49.7627 0.35456L49.8613 1.41616L50.7314 2.03235L49.6698 2.13095L49.0536 3.00103L48.955 1.93942L48.0849 1.32323L49.1465 1.22464L49.7627 0.35456Z" fill="#99A0AE"/>
<path d="M111.54 106.651L111.638 107.713L112.508 108.329L111.447 108.428L110.83 109.298L110.732 108.236L109.862 107.62L110.923 107.522L111.54 106.651Z" fill="#99A0AE"/>
</svg>
